<?xml version="1.0" encoding="UTF-8"?><svg id="a" xmlns="http://www.w3.org/2000/svg" xmlns:xlink="http://www.w3.org/1999/xlink" viewBox="0 0 202.2388 115.2856">
<title>Soundcloud_2008-2014-logo - brandlogos.net</title><defs><linearGradient id="b" x1="101.1194" y1="0" x2="101.1194" y2="115.2856" gradientUnits="userSpaceOnUse"><stop offset="0" stop-color="#f79810"/><stop offset="1" stop-color="#f8310e"/></linearGradient></defs><path d="M2.2895,52.5302c-.4228,0-.7563.3272-.8115.792l-1.478,11.231,1.478,11.041c.0552.4648.3887.7891.8115.7891.4077,0,.7408-.3204.8067-.7852h0v-.0019.0019l1.7524-11.0449-1.7524-11.2349c-.0635-.4629-.399-.7881-.8067-.7881ZM10.6064,46.3925c-.0693-.4824-.416-.8164-.8408-.8164-.4287,0-.7832.3438-.8408.8164,0,.0039-1.9883,18.1607-1.9883,18.1607l1.9883,17.7617c.0576.4746.4121.8203.8408.8203.4248,0,.7715-.3359.8389-.8164l2.2627-17.7656-2.2608-18.1607ZM41.9355,29.6377c-.8164,0-1.4892.6669-1.5293,1.5166l-1.582,33.4165,1.582,21.5957c.0401.8418.7129,1.5097,1.5293,1.5097.8116,0,1.4825-.6679,1.5313-1.5156v.0059l1.79-21.5957-1.79-33.4165c-.0488-.8497-.7197-1.5166-1.5313-1.5166ZM25.7207,41.2519c-.626,0-1.1377.501-1.1865,1.168l-1.7842,22.1411,1.7842,21.4199c.0488.6621.5605,1.1641,1.1865,1.1641.6211,0,1.1299-.502,1.1855-1.1641l2.0264-21.4199-2.0264-22.145c-.0556-.6631-.5644-1.1641-1.1855-1.1641ZM58.4131,87.6723c1.0107,0,1.833-.8164,1.8759-1.8613l1.5528-21.2324-1.5528-44.4859c-.041-1.0449-.8652-1.8608-1.8759-1.8608-1.0196,0-1.8428.8184-1.877,1.8628,0,.0024-1.3769,44.4839-1.3769,44.4839l1.3769,21.2402c.0342,1.0352.8574,1.8535,1.877,1.8535ZM92.1465,87.7739c1.3906,0,2.54-1.1485,2.5654-2.5567v.0157-.0157l1.083-20.623-1.083-51.3809c-.0234-1.4087-1.1748-2.5551-2.5654-2.5551-1.3946,0-2.5459,1.1464-2.5655,2.5576l-.9687,51.3608c0,.0332.9687,20.6543.9687,20.6543.0196,1.3945,1.1709,2.543,2.5655,2.543ZM75.1504,87.6919c1.2099,0,2.1875-.9727,2.2197-2.211v.0156l1.3193-20.9101-1.3193-44.8125c-.0322-1.2402-1.0098-2.2085-2.2197-2.2085-1.2198,0-2.1963.9702-2.2237,2.2085l-1.1728,44.8125,1.1748,20.9043c.0254,1.2285,1.0019,2.2012,2.2217,2.2012ZM33.7959,87.4965c.7207,0,1.3027-.5761,1.3574-1.3359l1.9092-21.5996-1.9092-20.5464c-.0527-.7578-.6348-1.331-1.3574-1.331-.7305,0-1.3125.5751-1.3584,1.3398l-1.6826,20.5376,1.6826,21.5977c.0459.7617.6279,1.3378,1.3584,1.3378ZM17.7099,86.3129c.5264,0,.9512-.416,1.0127-.9902l2.1446-20.7656-2.1426-21.5513c-.0635-.5752-.4883-.9912-1.0147-.9912-.5332,0-.9609.418-1.0136.9912,0,.002-1.8877,21.5513-1.8877,21.5513l1.8877,20.7598c.0527.58.4804.996,1.0136.996ZM83.6172,19.0288c-1.3184,0-2.3711,1.0473-2.3975,2.3847l-1.0693,43.1748,1.0693,20.7735c.0264,1.3242,1.0791,2.3691,2.3975,2.3691,1.3125,0,2.3613-1.0449,2.3906-2.3828v.0176l1.2002-20.7754-1.2002-43.1807c-.0293-1.3335-1.0781-2.3808-2.3906-2.3808ZM50.1426,87.7153c.9091,0,1.6591-.7402,1.7031-1.6875l1.6699-21.4531-1.6699-41.0581c-.044-.9473-.794-1.6885-1.7031-1.6885-.918,0-1.6651.7412-1.7061,1.6885,0,.0019-1.4785,41.0581-1.4785,41.0581l1.4814,21.4609c.0381.9395.7852,1.6797,1.7032,1.6797ZM68.7959,85.6919v-.0098l1.4346-21.0996-1.4346-45.9849c-.0342-1.1431-.9346-2.0371-2.0479-2.0371-1.1172,0-2.0175.894-2.0498,2.0371l-1.2744,45.9849,1.2764,21.1074c.0303,1.1289.9306,2.0234,2.0478,2.0234,1.1133,0,2.0088-.8945,2.0479-2.0293v.0079ZM177.3638,38.0742c-3.4082,0-6.6602.6904-9.6211,1.9306C165.7622,17.5864,146.9634,0,124.0317,0c-5.6113,0-11.0801,1.1045-15.9121,2.9736-1.8789.7266-2.3769,1.4741-2.3945,2.9248v78.9497c.0195,1.5234,1.1992,2.791,2.6855,2.9395.0645.0078,68.5098.041,68.9532.041,13.7382,0,24.875-11.1387,24.875-24.8789s-11.1368-24.8755-24.875-24.8755ZM100.6396,5.8281c-1.4931,0-2.7207,1.2275-2.7422,2.7339l-1.121,56.0361,1.123,20.3379c.0195,1.4844,1.2471,2.7109,2.7402,2.7109,1.4893,0,2.7163-1.2265,2.7378-2.7324v.0234l1.2188-20.3398-1.2188-56.0405c-.0215-1.502-1.2485-2.7295-2.7378-2.7295ZM20.0879,103.6469c-2.9414-.6933-3.7383-1.0625-3.7383-2.2285,0-.8222.6631-1.6719,2.6514-1.6719,1.6992,0,3.0244.6895,4.2177,1.9102l2.6787-2.5996c-1.75-1.8281-3.872-2.916-6.7607-2.916-3.6621,0-6.6309,2.0683-6.6309,5.4375,0,3.6582,2.3868,4.7461,5.8067,5.539,3.5.795,4.1377,1.3282,4.1377,2.5215,0,1.4063-1.0371,2.0156-3.2354,2.0156-1.7773,0-3.4472-.6093-4.7461-2.123l-2.6816,2.3867c1.4072,2.0684,4.1123,3.3672,7.2139,3.3672,5.0673,0,7.2939-2.3867,7.2939-5.9121,0-4.0332-3.2627-5.0391-6.207-5.7266ZM37.1689,96.1411c-5.0634,0-8.0576,3.9238-8.0576,9.5742s2.9942,9.5703,8.0576,9.5703,8.0625-3.9199,8.0625-9.5703-2.999-9.5742-8.0625-9.5742ZM37.1689,111.6001c-2.9951,0-4.2431-2.5723-4.2431-5.8848,0-3.3164,1.248-5.8867,4.2431-5.8867,3,0,4.2442,2.5703,4.2442,5.8867,0,3.3125-1.2442,5.8848-4.2442,5.8848ZM60.2148,106.8559c0,2.9688-1.4619,4.7988-3.8193,4.7988-2.3594,0-3.791-1.8828-3.791-4.8535v-10.3711h-3.7149v10.4258c0,5.4063,3.0244,8.4297,7.5059,8.4297,4.7197,0,7.5312-3.1035,7.5312-8.4844v-10.3711h-3.7119v10.4258ZM79.9414,104.2837c0,1.0332.0527,3.3652.0527,4.0566-.2392-.4785-.8457-1.4063-1.2959-2.0977l-6.581-9.8125h-3.5518v18.5664h3.6602v-8.1699c0-1.0332-.0528-3.3652-.0528-4.0547.2373.4746.8487,1.4024,1.2979,2.0957l6.8164,10.1289h3.3144v-18.5664h-3.6601v7.8536ZM94.1806,96.4301h-5.8066v18.5664h5.5391c4.7744,0,9.4956-2.7597,9.4956-9.2812,0-6.791-3.9243-9.2852-9.2281-9.2852ZM93.9131,111.3911h-1.8272v-11.3516h1.9629c3.9258,0,5.544,1.8809,5.544,5.6758,0,3.3945-1.7803,5.6758-5.6797,5.6758ZM114.8911,99.8286c1.6699,0,2.7324.7422,3.3945,2.0136l3.4473-1.5898c-1.168-2.4141-3.2891-4.1113-6.791-4.1113-4.8477,0-8.2442,3.9238-8.2442,9.5742,0,5.8594,3.2598,9.5703,8.1133,9.5703,3.3692,0,5.5957-1.5644,6.8692-4.1894l-3.1289-1.8575c-.9805,1.6465-1.9649,2.3614-3.6329,2.3614-2.7851,0-4.4043-2.5469-4.4043-5.8848,0-3.4473,1.5957-5.8867,4.377-5.8867ZM128.6606,96.4301h-3.7109v18.5664h11.1562v-3.6621h-7.4453v-14.9043ZM145.8872,96.1411c-5.0684,0-8.0625,3.9238-8.0625,9.5742s2.9941,9.5703,8.0625,9.5703c5.0644,0,8.0605-3.9199,8.0605-9.5703s-2.9961-9.5742-8.0605-9.5742ZM145.8872,111.6001c-2.9981,0-4.2441-2.5723-4.2441-5.8848,0-3.3164,1.246-5.8867,4.2441-5.8867,2.9922,0,4.2402,2.5703,4.2402,5.8867,0,3.3125-1.248,5.8848-4.2402,5.8848ZM168.9282,106.8559c0,2.9688-1.4551,4.7988-3.8144,4.7988-2.3653,0-3.795-1.8828-3.795-4.8535v-10.3711h-3.7109v10.4258c0,5.4063,3.0215,8.4297,7.5059,8.4297,4.7187,0,7.5293-3.1035,7.5293-8.4844v-10.3711h-3.7149v10.4258ZM183.0884,96.4301h-5.8047v18.5664h5.539c4.7774,0,9.4942-2.7597,9.4942-9.2812,0-6.791-3.9219-9.2852-9.2285-9.2852ZM182.8227,111.3911h-1.8281v-11.3516h1.9649c3.9218,0,5.539,1.8809,5.539,5.6758,0,3.3945-1.7773,5.6758-5.6758,5.6758Z" style="fill:url(#b);"/></svg>